<?xml version="1.0" encoding="UTF-8" standalone="no"?>
<!-- Created with Inkscape (http://www.inkscape.org/) -->

<svg
   xmlns:dc="http://purl.org/dc/elements/1.1/"
   xmlns:cc="http://creativecommons.org/ns#"
   xmlns:rdf="http://www.w3.org/1999/02/22-rdf-syntax-ns#"
   xmlns:svg="http://www.w3.org/2000/svg"
   xmlns="http://www.w3.org/2000/svg"
   xmlns:sodipodi="http://sodipodi.sourceforge.net/DTD/sodipodi-0.dtd"
   xmlns:inkscape="http://www.inkscape.org/namespaces/inkscape"
   width="500mm"
   height="350mm"
   viewBox="0 0 500 350"
   version="1.1"
   id="svg8"
   inkscape:version="0.92.4 (5da689c313, 2019-01-14)"
   sodipodi:docname="Verk3B).svg">
  <defs
     id="defs2">
    <filter
       id="filter4006"
       style="color-interpolation-filters:sRGB"
       inkscape:menu-tooltip="Bulging, knotty, slick 3D surface"
       inkscape:menu="Textures"
       inkscape:label="Organic">
      <feTurbulence
         id="feTurbulence3990"
         result="result0"
         baseFrequency="0.037"
         numOctaves="3" />
      <feSpecularLighting
         id="feSpecularLighting3994"
         result="result1"
         specularConstant="1"
         surfaceScale="2"
         specularExponent="24.29999924">
        <feDistantLight
           id="feDistantLight3992"
           azimuth="225"
           elevation="45" />
      </feSpecularLighting>
      <feDiffuseLighting
         id="feDiffuseLighting3998"
         diffuseConstant="1.21000004"
         surfaceScale="3"
         in="result0">
        <feDistantLight
           id="feDistantLight3996"
           elevation="42"
           azimuth="225" />
      </feDiffuseLighting>
      <feBlend
         id="feBlend4000"
         result="result91"
         mode="multiply"
         in2="SourceGraphic" />
      <feComposite
         id="feComposite4002"
         in2="result91"
         k3="1"
         k2="1"
         in="result1"
         operator="arithmetic"
         k1="0"
         k4="0" />
      <feComposite
         id="feComposite4004"
         result="fbSourceGraphic"
         operator="in"
         in2="SourceAlpha" />
      <feColorMatrix
         id="feColorMatrix4024"
         values="0 0 0 -1 0 0 0 0 -1 0 0 0 0 -1 0 0 0 0 1 0"
         in="fbSourceGraphic"
         result="fbSourceGraphicAlpha" />
      <feTurbulence
         result="result0"
         baseFrequency="0.037"
         numOctaves="3"
         id="feTurbulence4026" />
      <feSpecularLighting
         result="result1"
         specularConstant="1"
         surfaceScale="2"
         specularExponent="24.29999924"
         id="feSpecularLighting4028">
        <feDistantLight
           azimuth="225"
           elevation="45"
           id="feDistantLight4030" />
      </feSpecularLighting>
      <feDiffuseLighting
         result="result92"
         diffuseConstant="1.21000004"
         surfaceScale="3"
         in="result0"
         id="feDiffuseLighting4032">
        <feDistantLight
           elevation="42"
           azimuth="225"
           id="feDistantLight4034" />
      </feDiffuseLighting>
      <feBlend
         result="result91"
         mode="multiply"
         id="feBlend4036"
         in2="fbSourceGraphic" />
      <feComposite
         result="result93"
         k3="1"
         k2="1"
         in="result1"
         operator="arithmetic"
         id="feComposite4038"
         in2="result91"
         k1="0"
         k4="0" />
      <feComposite
         result="fbSourceGraphic"
         operator="in"
         id="feComposite4040"
         in2="fbSourceGraphicAlpha" />
      <feColorMatrix
         id="feColorMatrix4042"
         values="0 0 0 -1 0 0 0 0 -1 0 0 0 0 -1 0 0 0 0 1 0"
         in="fbSourceGraphic"
         result="fbSourceGraphicAlpha" />
      <feTurbulence
         result="result0"
         baseFrequency="0.037"
         numOctaves="3"
         id="feTurbulence4044" />
      <feSpecularLighting
         result="result1"
         specularConstant="1"
         surfaceScale="2"
         specularExponent="24.29999924"
         id="feSpecularLighting4046">
        <feDistantLight
           azimuth="225"
           elevation="45"
           id="feDistantLight4048" />
      </feSpecularLighting>
      <feDiffuseLighting
         result="result94"
         diffuseConstant="1.21000004"
         surfaceScale="3"
         in="result0"
         id="feDiffuseLighting4050">
        <feDistantLight
           elevation="42"
           azimuth="225"
           id="feDistantLight4052" />
      </feDiffuseLighting>
      <feBlend
         result="result91"
         mode="multiply"
         id="feBlend4054"
         in2="fbSourceGraphic" />
      <feComposite
         result="result95"
         k3="1"
         k2="1"
         in="result1"
         operator="arithmetic"
         id="feComposite4056"
         in2="result91"
         k1="0"
         k4="0" />
      <feComposite
         result="result2"
         operator="in"
         id="feComposite4058"
         in2="fbSourceGraphicAlpha" />
    </filter>
    <filter
       id="filter4128"
       style="color-interpolation-filters:sRGB"
       inkscape:menu-tooltip="Crumpled glossy paper effect which can be used for pictures as for objects"
       inkscape:menu="Textures"
       inkscape:label="Rough and Glossy">
      <feTurbulence
         id="feTurbulence4110"
         result="result0"
         seed="55"
         baseFrequency="0.02"
         numOctaves="7"
         type="fractalNoise" />
      <feDiffuseLighting
         id="feDiffuseLighting4114"
         in="result0"
         result="result1"
         kernelUnitLength="1"
         diffuseConstant="1"
         surfaceScale="4">
        <feDistantLight
           id="feDistantLight4112"
           elevation="60"
           azimuth="235" />
      </feDiffuseLighting>
      <feSpecularLighting
         id="feSpecularLighting4118"
         result="result3"
         kernelUnitLength="1"
         specularExponent="25"
         specularConstant="1"
         surfaceScale="3"
         in="result0">
        <feDistantLight
           id="feDistantLight4116"
           elevation="55"
           azimuth="235" />
      </feSpecularLighting>
      <feComposite
         id="feComposite4120"
         result="result2"
         k1="1"
         operator="arithmetic"
         in2="SourceGraphic"
         in="result1"
         k2="0"
         k3="0"
         k4="0" />
      <feComposite
         id="feComposite4122"
         result="result4"
         k3="1"
         k2="1"
         operator="arithmetic"
         in2="result3"
         in="result2"
         k1="0"
         k4="0" />
      <feComposite
         id="feComposite4124"
         result="fbSourceGraphic"
         in="result4"
         operator="in"
         in2="SourceAlpha" />
      <feDisplacementMap
         id="feDisplacementMap4126"
         in2="result0"
         xChannelSelector="R"
         yChannelSelector="G"
         scale="7" />
    </filter>
    <filter
       id="filter4148"
       style="color-interpolation-filters:sRGB"
       inkscape:menu-tooltip="Crumpled glossy paper effect which can be used for pictures as for objects"
       inkscape:menu="Textures"
       inkscape:label="Rough and Glossy">
      <feTurbulence
         id="feTurbulence4130"
         result="result0"
         seed="55"
         baseFrequency="0.02"
         numOctaves="7"
         type="fractalNoise" />
      <feDiffuseLighting
         id="feDiffuseLighting4134"
         in="result0"
         result="result1"
         kernelUnitLength="1"
         diffuseConstant="1"
         surfaceScale="4">
        <feDistantLight
           id="feDistantLight4132"
           elevation="60"
           azimuth="235" />
      </feDiffuseLighting>
      <feSpecularLighting
         id="feSpecularLighting4138"
         result="result3"
         kernelUnitLength="1"
         specularExponent="25"
         specularConstant="1"
         surfaceScale="3"
         in="result0">
        <feDistantLight
           id="feDistantLight4136"
           elevation="55"
           azimuth="235" />
      </feSpecularLighting>
      <feComposite
         id="feComposite4140"
         result="result2"
         k1="1"
         operator="arithmetic"
         in2="SourceGraphic"
         in="result1"
         k2="0"
         k3="0"
         k4="0" />
      <feComposite
         id="feComposite4142"
         result="result4"
         k3="1"
         k2="1"
         operator="arithmetic"
         in2="result3"
         in="result2"
         k1="0"
         k4="0" />
      <feComposite
         id="feComposite4144"
         result="fbSourceGraphic"
         in="result4"
         operator="in"
         in2="SourceAlpha" />
      <feDisplacementMap
         id="feDisplacementMap4146"
         in2="result0"
         xChannelSelector="R"
         yChannelSelector="G"
         scale="7" />
    </filter>
    <filter
       id="filter4350"
       style="color-interpolation-filters:sRGB"
       inkscape:menu-tooltip="Adds a small scale graininess"
       inkscape:menu="Image Effects"
       inkscape:label="Film Grain">
      <feTurbulence
         id="feTurbulence4340"
         result="result0"
         seed="0"
         baseFrequency="1"
         numOctaves="3"
         type="fractalNoise" />
      <feColorMatrix
         id="feColorMatrix4342"
         type="saturate"
         values="0"
         result="result4" />
      <feComposite
         id="feComposite4344"
         result="result2"
         k3="0.5"
         k2="0.5"
         k1="1.25"
         operator="arithmetic"
         in2="result4"
         in="SourceGraphic"
         k4="0" />
      <feBlend
         id="feBlend4346"
         in2="SourceGraphic"
         in="result2"
         mode="normal"
         result="result5" />
      <feComposite
         id="feComposite4348"
         result="result3"
         operator="in"
         in2="SourceGraphic"
         in="result5" />
    </filter>
    <filter
       id="filter4470"
       style="color-interpolation-filters:sRGB"
       inkscape:menu-tooltip="Under a cracked glass"
       inkscape:menu="Textures"
       inkscape:label="Cracked Glass">
      <feTurbulence
         id="feTurbulence4446"
         type="fractalNoise"
         result="result1"
         numOctaves="5"
         seed="50"
         baseFrequency="0.1" />
      <feGaussianBlur
         id="feGaussianBlur4448"
         result="result7"
         stdDeviation="4" />
      <feDisplacementMap
         id="feDisplacementMap4450"
         in2="result7"
         xChannelSelector="G"
         scale="20"
         in="SourceGraphic"
         result="result5"
         yChannelSelector="A" />
      <feComposite
         id="feComposite4452"
         in="result5"
         in2="result1"
         operator="in"
         result="result2" />
      <feGaussianBlur
         id="feGaussianBlur4454"
         result="result6"
         stdDeviation="1" />
      <feSpecularLighting
         id="feSpecularLighting4458"
         in="result6"
         specularExponent="35"
         specularConstant="3.5"
         result="result4"
         surfaceScale="-3">
        <feDistantLight
           id="feDistantLight4456"
           azimuth="225"
           elevation="45" />
      </feSpecularLighting>
      <feComposite
         id="feComposite4460"
         result="result91"
         operator="arithmetic"
         in="result4"
         in2="result2"
         k3="0.7"
         k1="1.7"
         k2="0"
         k4="0" />
      <feBlend
         id="feBlend4462"
         in2="result91"
         mode="multiply"
         result="fbSourceGraphic" />
      <feComposite
         id="feComposite4464"
         operator="arithmetic"
         result="result2"
         in="fbSourceGraphic"
         in2="fbSourceGraphic"
         k1="0"
         k2="0"
         k3="0"
         k4="0" />
      <feComposite
         id="feComposite4466"
         in2="fbSourceGraphic"
         k3="2"
         k2="2"
         operator="arithmetic"
         result="result4"
         in="result2"
         k1="0"
         k4="0" />
      <feBlend
         id="feBlend4468"
         in2="result4"
         in="result4"
         mode="screen" />
    </filter>
  </defs>
  <sodipodi:namedview
     id="base"
     pagecolor="#ffffff"
     bordercolor="#666666"
     borderopacity="1.0"
     inkscape:pageopacity="0.0"
     inkscape:pageshadow="2"
     inkscape:zoom="0.49497475"
     inkscape:cx="1081.9839"
     inkscape:cy="743.8598"
     inkscape:document-units="mm"
     inkscape:current-layer="layer1"
     showgrid="false"
     inkscape:window-width="1920"
     inkscape:window-height="986"
     inkscape:window-x="-11"
     inkscape:window-y="-11"
     inkscape:window-maximized="1"
     inkscape:lockguides="true" />
  <metadata
     id="metadata5">
    <rdf:RDF>
      <cc:Work
         rdf:about="">
        <dc:format>image/svg+xml</dc:format>
        <dc:type
           rdf:resource="http://purl.org/dc/dcmitype/StillImage" />
        <dc:title></dc:title>
      </cc:Work>
    </rdf:RDF>
  </metadata>
  <g
     inkscape:label="Layer 1"
     inkscape:groupmode="layer"
     id="layer1"
     transform="translate(0,53)">
    <path
       id="path4230"
       style="fill:none;stroke:#000000;stroke-width:0.1"
       d="m 4.708329,4.708329 v 20.000007 h 6.000007 V 34.70833 H 4.708329 v 10.000004 h 6.000007 V 54.708338 H 4.708329 v 28.999995 h 6.000007 V 93.708337 H 4.708329 v 9.999993 h 6.000007 v 10 H 4.708329 v 10 h 6.000007 v 10 H 4.708329 v 10 h 6.000007 v 10 H 4.708329 v 10 h 6.000007 v 10 H 4.708329 v 29 h 6.000007 v 10 H 4.708329 v 10 h 6.000007 v 10 H 4.708329 v 8 h 6.000007 v 4.75736 H 168.70833 v -4.75736 h 6 v -8 h -6 v -10 h 6 v -10 h -6 v -10 h 6 v -29 h -6 v -10 h 6 v -10 h -6 v -10 h 6 v -10 h -6 v -10 h 6 v -10 h -6 v -10 h 6 v -9.999993 h -6 V 83.708333 h 6 V 54.708338 h -6 V 44.708334 h 6 V 34.70833 h -6 v -9.999994 h 6 V 4.708329 h -6 v 6.000007 H 10.708336 V 4.708329 H 4.708329"
       inkscape:connector-curvature="0" />
    <path
       id="path4232"
       style="fill:none;stroke:#008000;stroke-width:0.1"
       d="m 174.70833,68.708333 h -15 -5 v 6.000003 h -5 -5 v -6.000003 h -5 -5 v 6.000003 h -5 -5 v -6.000003 h -5 -5 v 6.000003 h -5 -5 v -6.000003 h -4.999996 -4.999996 v 6.000003 h -5.000007 -4.999997 v -6.000003 h -4.999997 -5.000001 v 6.000003 h -5.000007 -4.999997 v -6.000003 h -4.999997 -4.999997 v 6.000003 H 49.708331 44.708334 V 68.708333 H 39.708337 34.70833 v 6.000003 h -4.999997 -4.999997 v -6.000003 h -5.000007 -15"
       inkscape:connector-curvature="0" />
    <path
       id="path4234"
       style="fill:none;stroke:#008000;stroke-width:0.1"
       d="m 4.708329,188.70833 h 15 5.000007 v -6 h 4.999997 4.999997 v 6 h 5.000007 4.999997 v -6 h 4.999997 5.000007 v 6 h 4.999997 4.999997 v -6 h 4.999997 5.000007 v 6 h 5.000001 4.999997 v -6 h 4.999997 5.000007 v 6 h 4.999996 4.999996 v -6 h 5 5 v 6 h 5 5 v -6 h 5 5 v 6 h 5 5 v -6 h 5 5 v 6 h 5 15"
       inkscape:connector-curvature="0" />
    <circle
       id="circle4236"
       style="fill:none;stroke:#008000;stroke-width:0.1"
       r="4.242641"
       cy="121.70831"
       cx="243.70833" />
    <path
       id="path4238"
       style="fill:none;stroke:#000000;stroke-width:0.1"
       d="m 176.70833,10.708336 h 20 V 4.708329 h 10 v 6.000007 h 10 V 4.708329 h 10 v 6.000007 h 20 V 113.22305 a 9,9 0 1 1 -11.48528,5.48528 h -8.51472 v 6 h -10 v -6 h -10 v 6 h -10 v -6 h -14 v -9 h -6 v -9.999996 h 6 V 89.708331 h -6 v -9.999994 h 6 V 69.708329 h -6 v -9.999994 h 6 V 49.708331 h -6 v -9.999994 h 6 V 29.708333 h -6 V 19.708329 h 6 v -15"
       inkscape:connector-curvature="0" />
    <circle
       id="circle4240"
       style="fill:none;stroke:#008000;stroke-width:0.1"
       r="4.242641"
       cy="145.70833"
       cx="243.70833" />
    <path
       id="path4242"
       style="fill:none;stroke:#000000;stroke-width:0.1"
       d="m 176.70833,148.70833 h 20 v -6 h 10 v 6 h 10 v -6 h 10 v 6 h 8.51472 a 9,9 0 1 1 11.48528,5.48528 v 102.51472 h -20 v 6 h -10 v -6 h -10 v 6 h -10 v -6 h -14 v -9 h -6 v -10 h 6 v -10 h -6 v -10 h 6 v -10 h -6 v -10 h 6 v -10 h -6 v -10 h 6 v -10 h -6 v -10 h 6 v -15"
       inkscape:connector-curvature="0" />
    <path
       id="path4244"
       style="fill:none;stroke:#000000;stroke-width:0.1"
       d="m 253.17379,4.4571776 h 170 v 6.0000034 h -6 V 124.45717 h -70.56963 m 0,0 c -7.68551,9.26042 -7.8115,9.07143 -15.68601,0 m 0,0 H 259.17379 V 10.457181 h -6 V 4.4571776"
       inkscape:connector-curvature="0"
       sodipodi:nodetypes="ccccccccccccc" />
    <g
       id="g1383">
      <g
         id="g268">
        <g
           transform="matrix(0.78496178,0,0,0.61740616,256.61172,-50.366525)"
           id="layer1-1"
           inkscape:label="Layer 1">
          <path
             sodipodi:nodetypes="ccccccc"
             inkscape:connector-curvature="0"
             id="path3747"
             d="m 104.76253,281.99998 50,-85 h 50 l -50,-104.999996 -25,44.999996 H 79.762503 l -25,-44.999996"
             style="fill:none;stroke:#8a0000;stroke-width:0.26458332px;stroke-linecap:butt;stroke-linejoin:miter;stroke-opacity:1" />
          <path
             inkscape:connector-curvature="0"
             id="path3761"
             d="m 104.76253,281.99998 -50.000027,-85 H 4.7625002 L 54.762503,91.999983"
             style="fill:none;stroke:#8b0000;stroke-width:0.26458332px;stroke-linecap:butt;stroke-linejoin:miter;stroke-opacity:1" />
          <g
             id="g238">
            <path
               inkscape:connector-curvature="0"
               id="path3852"
               d="m 44.785156,151.86719 0.0957,0.1914 15.03711,30.07422 H 90.214844 L 75.082031,151.86719 Z m 0.429688,0.26562 h 29.703125 l 14.867187,29.73438 H 60.082031 Z"
               style="color:#000000;font-style:normal;font-variant:normal;font-weight:normal;font-stretch:normal;font-size:medium;line-height:normal;font-family:sans-serif;font-variant-ligatures:normal;font-variant-position:normal;font-variant-caps:normal;font-variant-numeric:normal;font-variant-alternates:normal;font-feature-settings:normal;text-indent:0;text-align:start;text-decoration:none;text-decoration-line:none;text-decoration-style:solid;text-decoration-color:#000000;letter-spacing:normal;word-spacing:normal;text-transform:none;writing-mode:lr-tb;direction:ltr;text-orientation:mixed;dominant-baseline:auto;baseline-shift:baseline;text-anchor:start;white-space:normal;shape-padding:0;clip-rule:nonzero;display:inline;overflow:visible;visibility:visible;opacity:1;isolation:auto;mix-blend-mode:normal;color-interpolation:sRGB;color-interpolation-filters:linearRGB;solid-color:#000000;solid-opacity:1;vector-effect:none;fill:#8b0000;fill-opacity:1;fill-rule:nonzero;stroke:none;stroke-width:0.26458332px;stroke-linecap:butt;stroke-linejoin:miter;stroke-miterlimit:4;stroke-dasharray:none;stroke-dashoffset:0;stroke-opacity:1;color-rendering:auto;image-rendering:auto;shape-rendering:auto;text-rendering:auto;enable-background:accumulate" />
            <path
               inkscape:connector-curvature="0"
               id="path3854"
               d="m 80.276752,152.21141 12.324829,19.72024 c 4.74844,7.59775 7.814379,12.45809 9.724989,15.38769 0.9553,1.4648 1.62131,2.44655 2.06654,3.04943 0.22261,0.30143 0.38911,0.50713 0.51521,0.63665 0.0631,0.0648 0.11391,0.11077 0.17105,0.14314 0.0286,0.0162 0.06,0.031 0.10387,0.0336 0.0439,0.003 0.10312,-0.0183 0.13643,-0.0548 0.0248,-0.0272 0.0238,-0.0306 0.0388,-0.0527 0.0149,-0.0221 0.0346,-0.0515 0.0594,-0.0894 0.0496,-0.0758 0.11909,-0.18392 0.20774,-0.32246 0.17732,-0.27706 0.43092,-0.67609 0.74983,-1.18028 0.63781,-1.0084 1.53787,-2.43799 2.61586,-4.15324 2.15598,-3.4305 5.02315,-8.00466 7.92561,-12.64212 5.80494,-9.27492 11.74372,-18.79053 12.42663,-19.93935 0.0245,-0.0413 0.0243,-0.12407 -0.004,-0.16692 -0.0284,-0.0429 -0.0588,-0.0573 -0.0863,-0.0703 -0.0551,-0.0259 -0.11482,-0.0391 -0.19895,-0.0537 -0.16827,-0.0292 -0.4258,-0.0534 -0.79996,-0.0755 -0.74831,-0.0441 -1.95873,-0.0777 -3.78323,-0.10284 -3.64899,-0.0503 -9.75268,-0.0672 -19.49855,-0.0672 z m 0.482142,0.26768 H 104.9724 c 9.74556,0 15.84922,0.017 19.49494,0.0672 1.82286,0.0251 3.03151,0.0583 3.77083,0.1018 0.36965,0.0218 0.62317,0.0464 0.76997,0.0718 0.0182,0.003 0.0176,0.005 0.0326,0.008 -0.7239,1.21225 -6.57947,10.59721 -12.35015,19.81739 -2.9024,4.63736 -5.76978,9.21134 -7.92561,12.64161 -1.07792,1.71513 -1.9778,3.14423 -2.61535,4.1522 -0.31877,0.50399 -0.57197,0.90296 -0.74879,1.17926 -0.0884,0.13815 -0.15802,0.24591 -0.20671,0.32039 -0.0113,0.0173 -0.0173,0.0262 -0.0264,0.0398 -0.0207,-0.0166 -0.035,-0.0253 -0.0682,-0.0594 -0.10855,-0.11149 -0.2722,-0.3129 -0.49145,-0.60978 -0.43849,-0.59376 -1.10314,-1.57355 -2.05723,-3.03651 -1.9082,-2.9259 -4.974743,-7.7857 -9.722926,-15.38304 z"
               style="color:#000000;font-style:normal;font-variant:normal;font-weight:normal;font-stretch:normal;font-size:medium;line-height:normal;font-family:sans-serif;font-variant-ligatures:normal;font-variant-position:normal;font-variant-caps:normal;font-variant-numeric:normal;font-variant-alternates:normal;font-feature-settings:normal;text-indent:0;text-align:start;text-decoration:none;text-decoration-line:none;text-decoration-style:solid;text-decoration-color:#000000;letter-spacing:normal;word-spacing:normal;text-transform:none;writing-mode:lr-tb;direction:ltr;text-orientation:mixed;dominant-baseline:auto;baseline-shift:baseline;text-anchor:start;white-space:normal;shape-padding:0;clip-rule:nonzero;display:inline;overflow:visible;visibility:visible;opacity:1;isolation:auto;mix-blend-mode:normal;color-interpolation:sRGB;color-interpolation-filters:linearRGB;solid-color:#000000;solid-opacity:1;vector-effect:none;fill:#8b0000;fill-opacity:1;fill-rule:nonzero;stroke:none;stroke-width:0.26726952;stroke-linecap:butt;stroke-linejoin:miter;stroke-miterlimit:4;stroke-dasharray:none;stroke-dashoffset:0;stroke-opacity:1;color-rendering:auto;image-rendering:auto;shape-rendering:auto;text-rendering:auto;enable-background:accumulate" />
            <path
               inkscape:connector-curvature="0"
               id="path3856"
               d="m 135.05687,152.21141 -7.31893,14.64096 c -2.0026,4.006 -3.82288,7.66246 -5.14284,10.32702 -0.65998,1.33228 -1.1948,2.41695 -1.56476,3.17293 -0.18498,0.37799 -0.3291,0.67378 -0.42685,0.87798 -0.0489,0.1021 -0.0861,0.181 -0.11162,0.23668 -0.0128,0.0278 -0.0227,0.0495 -0.03,0.0667 -0.004,0.009 -0.006,0.0159 -0.009,0.0238 -0.001,0.004 -0.003,0.008 -0.005,0.0139 -8.9e-4,0.003 -0.002,0.007 -0.003,0.0124 -10e-4,0.006 -0.003,0.0276 -0.003,0.0279 0,2.8e-4 0.0246,0.0777 0.0248,0.078 2e-4,2.8e-4 0.0241,0.0262 0.0331,0.0326 0.0179,0.0127 0.028,0.0162 0.0362,0.0191 0.0164,0.006 0.0255,0.007 0.0357,0.009 0.0203,0.004 0.0412,0.006 0.0682,0.008 0.0541,0.005 0.13004,0.009 0.22893,0.0134 0.19778,0.009 0.48677,0.0174 0.85886,0.0253 0.74418,0.0159 1.81902,0.0303 3.14555,0.0424 2.65305,0.0241 6.31211,0.0388 10.33683,0.0388 h 14.71642 l 7.31893,-14.64045 c 2.00259,-4.006 3.82339,-7.66298 5.14335,-10.32754 0.65999,-1.33228 1.1948,-2.41643 1.56477,-3.17241 0.18498,-0.37799 0.32858,-0.67379 0.42633,-0.87799 0.0489,-0.1021 0.0861,-0.18099 0.11162,-0.23667 0.0128,-0.0279 0.0227,-0.05 0.03,-0.0672 0.004,-0.009 0.007,-0.0154 0.01,-0.0233 10e-4,-0.004 0.003,-0.008 0.005,-0.0145 9e-4,-0.003 0.002,-0.006 0.003,-0.0119 0.001,-0.006 0.003,-0.0281 0.003,-0.0284 0,-2.8e-4 -0.0246,-0.0772 -0.0248,-0.0775 -2e-4,-2.9e-4 -0.0236,-0.0267 -0.0326,-0.0331 -0.0179,-0.0128 -0.028,-0.0157 -0.0362,-0.0186 -0.0164,-0.006 -0.0255,-0.007 -0.0357,-0.009 -0.0203,-0.004 -0.0417,-0.006 -0.0687,-0.008 -0.0541,-0.005 -0.12951,-0.009 -0.22841,-0.0134 -0.19778,-0.009 -0.48677,-0.0169 -0.85886,-0.0248 -0.74417,-0.0159 -1.81953,-0.0303 -3.14606,-0.0424 -2.65305,-0.0241 -6.3116,-0.0393 -10.33632,-0.0393 z m 0.16536,0.26768 h 14.55157 c 4.02406,0 7.68243,0.0147 10.33425,0.0388 1.32592,0.012 2.39983,0.0265 3.14193,0.0424 0.37105,0.008 0.65938,0.0163 0.85318,0.0248 0.048,0.002 0.0714,0.004 0.10749,0.006 -0.0216,0.0462 -0.0399,0.0867 -0.0718,0.15348 -0.0971,0.20286 -0.24101,0.49829 -0.42582,0.87592 -0.36961,0.75526 -0.90437,1.83932 -1.56424,3.17138 -1.31975,2.66413 -3.13985,6.32074 -5.14232,10.32651 l -7.24504,14.49265 h -14.55157 c -4.02406,0 -7.68242,-0.0147 -10.33425,-0.0388 -1.32591,-0.012 -2.40034,-0.0265 -3.14244,-0.0424 -0.37106,-0.008 -0.65939,-0.0163 -0.85318,-0.0248 -0.0481,-0.002 -0.0713,-0.004 -0.10749,-0.006 0.0217,-0.0462 0.0404,-0.0867 0.0724,-0.15348 0.0971,-0.20284 0.24049,-0.49828 0.4253,-0.87591 0.36961,-0.75526 0.90437,-1.83932 1.56424,-3.17139 1.31975,-2.66412 3.14036,-6.32074 5.14284,-10.3265 z"
               style="color:#000000;font-style:normal;font-variant:normal;font-weight:normal;font-stretch:normal;font-size:medium;line-height:normal;font-family:sans-serif;font-variant-ligatures:normal;font-variant-position:normal;font-variant-caps:normal;font-variant-numeric:normal;font-variant-alternates:normal;font-feature-settings:normal;text-indent:0;text-align:start;text-decoration:none;text-decoration-line:none;text-decoration-style:solid;text-decoration-color:#000000;letter-spacing:normal;word-spacing:normal;text-transform:none;writing-mode:lr-tb;direction:ltr;text-orientation:mixed;dominant-baseline:auto;baseline-shift:baseline;text-anchor:start;white-space:normal;shape-padding:0;clip-rule:nonzero;display:inline;overflow:visible;visibility:visible;opacity:1;isolation:auto;mix-blend-mode:normal;color-interpolation:sRGB;color-interpolation-filters:linearRGB;solid-color:#000000;solid-opacity:1;vector-effect:none;fill:#8b0000;fill-opacity:1;fill-rule:nonzero;stroke:none;stroke-width:0.26726952;stroke-linecap:butt;stroke-linejoin:miter;stroke-miterlimit:4;stroke-dasharray:none;stroke-dashoffset:0;stroke-opacity:1;color-rendering:auto;image-rendering:auto;shape-rendering:auto;text-rendering:auto;enable-background:accumulate" />
            <path
               inkscape:connector-curvature="0"
               id="path3858"
               d="m 175.26785,152.77209 c -0.0339,-0.001 -0.0822,0.0175 -0.10697,0.045 -0.0306,0.0339 -0.0249,0.0342 -0.0357,0.0527 -0.0108,0.0185 -0.0241,0.0425 -0.0408,0.0729 -0.0334,0.0608 -0.0794,0.14661 -0.13746,0.25631 -0.11614,0.2194 -0.28026,0.53395 -0.48627,0.93121 -0.41204,0.79453 -0.99044,1.91847 -1.67897,3.2613 -1.37706,2.68565 -3.19537,6.24826 -5.00796,9.80974 -1.81259,3.56147 -3.61917,7.12166 -4.97283,9.80147 -0.67683,1.3399 -1.24056,2.45977 -1.63504,3.24993 -0.19724,0.39507 -0.35195,0.7076 -0.45785,0.92449 -0.053,0.10844 -0.0936,0.19261 -0.12144,0.25218 -0.0139,0.0298 -0.0246,0.0535 -0.0326,0.0718 -0.004,0.009 -0.007,0.0165 -0.0103,0.0248 -0.002,0.004 -0.003,0.009 -0.005,0.015 -0.002,0.006 -0.006,0.009 -0.006,0.0408 0,3.4e-4 0.008,0.0502 0.0176,0.0672 0.01,0.017 0.0203,0.0275 0.0289,0.0351 0.0173,0.0153 0.0286,0.0203 0.0377,0.0243 0.0182,0.008 0.0284,0.01 0.0393,0.0124 0.0217,0.005 0.0431,0.007 0.0703,0.0103 0.0543,0.006 0.12919,0.0117 0.22686,0.017 0.19536,0.0107 0.4803,0.0207 0.84698,0.0305 0.73336,0.0195 1.79271,0.0374 3.09955,0.0522 2.6137,0.0296 6.21798,0.0476 10.18285,0.0476 h 14.63063 l -5.05499,-10.28206 c -2.72806,-5.54896 -5.91005,-12.06161 -7.07037,-14.47095 -0.5809,-1.20618 -1.11996,-2.29076 -1.52084,-3.06752 -0.20044,-0.38838 -0.36649,-0.69941 -0.48679,-0.91209 -0.0601,-0.10634 -0.1081,-0.18774 -0.14625,-0.24494 -0.0191,-0.0286 -0.0345,-0.0507 -0.0543,-0.0724 -0.01,-0.0108 -0.0185,-0.022 -0.045,-0.0372 -0.0132,-0.008 -0.0328,-0.0179 -0.0667,-0.0191 z m 0.006,0.38241 c 0.0241,0.04 0.0419,0.0668 0.0734,0.12247 0.11708,0.20699 0.28205,0.5166 0.48163,0.90331 0.39915,0.7734 0.93771,1.8564 1.51774,3.06079 1.16151,2.4118 4.34311,8.92412 7.0714,14.47354 l 4.86585,9.89655 h -14.20171 c -3.96404,0 -7.5681,-0.0185 -10.18026,-0.0481 -1.30609,-0.0148 -2.36412,-0.0322 -3.0949,-0.0517 -0.3654,-0.01 -0.64935,-0.02 -0.83975,-0.0305 -0.0476,-0.003 -0.0704,-0.005 -0.10593,-0.008 0.0246,-0.0517 0.0483,-0.10108 0.0863,-0.1788 0.10522,-0.2155 0.26027,-0.52771 0.45733,-0.92242 0.39412,-0.78943 0.95728,-1.90919 1.63401,-3.2489 1.35346,-2.67941 3.16033,-6.23914 4.97283,-9.80043 1.81249,-3.56129 3.63058,-7.12396 5.00744,-9.80922 0.68843,-1.34263 1.26678,-2.46592 1.67845,-3.25975 0.20584,-0.39692 0.36978,-0.71155 0.48524,-0.92966 0.0387,-0.0731 0.0636,-0.11874 0.0909,-0.1695 z"
               style="color:#000000;font-style:normal;font-variant:normal;font-weight:normal;font-stretch:normal;font-size:medium;line-height:normal;font-family:sans-serif;font-variant-ligatures:normal;font-variant-position:normal;font-variant-caps:normal;font-variant-numeric:normal;font-variant-alternates:normal;font-feature-settings:normal;text-indent:0;text-align:start;text-decoration:none;text-decoration-line:none;text-decoration-style:solid;text-decoration-color:#000000;letter-spacing:normal;word-spacing:normal;text-transform:none;writing-mode:lr-tb;direction:ltr;text-orientation:mixed;dominant-baseline:auto;baseline-shift:baseline;text-anchor:start;white-space:normal;shape-padding:0;clip-rule:nonzero;display:inline;overflow:visible;visibility:visible;opacity:1;isolation:auto;mix-blend-mode:normal;color-interpolation:sRGB;color-interpolation-filters:linearRGB;solid-color:#000000;solid-opacity:1;vector-effect:none;fill:#8b0000;fill-opacity:1;fill-rule:nonzero;stroke:none;stroke-width:0.26726952;stroke-linecap:butt;stroke-linejoin:miter;stroke-miterlimit:4;stroke-dasharray:none;stroke-dashoffset:0;stroke-opacity:1;color-rendering:auto;image-rendering:auto;shape-rendering:auto;text-rendering:auto;enable-background:accumulate" />
            <path
               inkscape:connector-curvature="0"
               id="path3860"
               d="m 34.982877,152.44963 -7.287926,14.53658 c -1.971348,3.93209 -3.765355,7.52941 -5.067392,10.15752 -0.651018,1.31406 -1.179137,2.38575 -1.545125,3.13625 -0.182994,0.37524 -0.325455,0.66971 -0.422713,0.87488 -0.04863,0.10258 -0.08585,0.18299 -0.111622,0.24029 -0.01289,0.0286 -0.02297,0.0514 -0.03049,0.0698 -0.0038,0.009 -0.0068,0.0168 -0.0098,0.0253 -0.003,0.008 -0.0072,0.008 -0.0098,0.0444 -0.003,0.0415 0.0164,0.0796 0.03256,0.0987 0.01615,0.0191 0.02911,0.0268 0.03927,0.0326 0.02033,0.0115 0.03214,0.0143 0.04392,0.0176 0.02356,0.007 0.04535,0.0102 0.07286,0.0139 0.05504,0.008 0.129769,0.0141 0.227377,0.0207 0.195215,0.0132 0.480075,0.0257 0.84646,0.0377 0.732769,0.024 1.79138,0.0454 3.098518,0.0636 2.614277,0.0363 6.221517,0.0589 10.191111,0.0589 H 49.69929 l -7.346836,-14.69161 z m -5.16e-4,0.59687 7.130831,14.25959 7.153568,14.30507 H 35.050058 c -3.968581,0 -7.575095,-0.0226 -10.187493,-0.0589 -1.306199,-0.0182 -2.363762,-0.0396 -3.093351,-0.0636 -0.364795,-0.012 -0.648077,-0.0244 -0.837159,-0.0372 -0.04996,-0.003 -0.07427,-0.007 -0.110587,-0.0103 0.02265,-0.0493 0.0449,-0.0973 0.0801,-0.17157 0.09645,-0.20346 0.238397,-0.49804 0.421163,-0.87282 0.365534,-0.74956 0.893731,-1.82091 1.544609,-3.13469 1.301755,-2.62755 3.095167,-6.22419 5.066357,-10.15597 z"
               style="color:#000000;font-style:normal;font-variant:normal;font-weight:normal;font-stretch:normal;font-size:medium;line-height:normal;font-family:sans-serif;font-variant-ligatures:normal;font-variant-position:normal;font-variant-caps:normal;font-variant-numeric:normal;font-variant-alternates:normal;font-feature-settings:normal;text-indent:0;text-align:start;text-decoration:none;text-decoration-line:none;text-decoration-style:solid;text-decoration-color:#000000;letter-spacing:normal;word-spacing:normal;text-transform:none;writing-mode:lr-tb;direction:ltr;text-orientation:mixed;dominant-baseline:auto;baseline-shift:baseline;text-anchor:start;white-space:normal;shape-padding:0;clip-rule:nonzero;display:inline;overflow:visible;visibility:visible;opacity:1;isolation:auto;mix-blend-mode:normal;color-interpolation:sRGB;color-interpolation-filters:linearRGB;solid-color:#000000;solid-opacity:1;vector-effect:none;fill:#8b0000;fill-opacity:1;fill-rule:nonzero;stroke:none;stroke-width:0.26726952;stroke-linecap:butt;stroke-linejoin:miter;stroke-miterlimit:4;stroke-dasharray:none;stroke-dashoffset:0;stroke-opacity:1;color-rendering:auto;image-rendering:auto;shape-rendering:auto;text-rendering:auto;enable-background:accumulate" />
            <path
               inkscape:connector-curvature="0"
               id="path3862"
               d="m 55.000776,110.86381 -7.425902,17.32245 c -2.008309,4.68492 -3.834143,8.95201 -5.157824,12.0525 -0.661842,1.55024 -1.197983,2.80887 -1.568898,3.68246 -0.185457,0.43679 -0.329538,0.77701 -0.427365,1.00976 -0.04891,0.11637 -0.08634,0.20583 -0.11162,0.26716 -0.01264,0.0307 -0.02218,0.0543 -0.02894,0.0713 -0.0034,0.009 -0.006,0.0155 -0.0083,0.0217 -0.0011,0.003 -0.0022,0.006 -0.0036,0.01 -6.91e-4,0.002 -0.0014,0.005 -0.0026,0.009 -0.0012,0.005 -0.0047,0.034 -0.0047,0.0341 0,1.5e-4 0.05354,0.10734 0.05374,0.10748 2.01e-4,1.5e-4 0.02687,0.0159 0.03411,0.0186 0.01448,0.005 0.02029,0.006 0.02584,0.007 0.01109,0.002 0.01796,0.003 0.02636,0.004 0.01678,0.002 0.03697,0.003 0.06304,0.004 0.05214,0.002 0.127151,0.004 0.225309,0.007 0.196313,0.005 0.484401,0.009 0.855244,0.0129 0.741688,0.008 1.813946,0.0159 3.13676,0.0222 2.645627,0.0126 6.294157,0.0207 10.307897,0.0207 6.893448,0 10.538756,-0.006 12.446785,-0.0682 0.954016,-0.0309 1.469686,-0.0732 1.761652,-0.14366 0.145981,-0.0352 0.245792,-0.0738 0.313158,-0.16071 0.06736,-0.087 0.05425,-0.2023 0.0279,-0.27441 -0.01789,-0.0489 -0.07543,-0.18656 -0.181901,-0.43976 -0.106471,-0.25321 -0.258016,-0.61097 -0.449069,-1.06144 -0.382101,-0.90094 -0.923033,-2.17304 -1.583883,-3.72328 -1.321697,-3.10049 -3.121499,-7.31269 -5.079791,-11.88817 z m 0,0.67851 6.998022,16.35145 c 1.958253,4.57538 3.757653,8.78734 5.079278,11.88765 0.66081,1.55015 1.201896,2.82211 1.583883,3.72277 0.190992,0.45033 0.342278,0.80818 0.448551,1.06092 0.106272,0.25273 0.171638,0.412 0.17725,0.42736 0.01402,0.0383 0.01114,0.0201 0.01188,0.0191 7.43e-4,-9.6e-4 -0.04273,0.0353 -0.16433,0.0646 -0.243197,0.0587 -0.758601,0.10566 -1.707391,0.13642 -1.897581,0.0615 -5.545235,0.0682 -12.438517,0.0682 -4.013391,0 -7.661881,-0.008 -10.306863,-0.0207 -1.32249,-0.006 -2.394098,-0.0139 -3.134693,-0.0222 -0.370298,-0.004 -0.657934,-0.008 -0.852143,-0.0129 -0.04741,-0.001 -0.07093,-0.002 -0.106972,-0.003 0.02261,-0.0544 0.0436,-0.10515 0.07803,-0.18706 0.09758,-0.23216 0.241972,-0.5726 0.427366,-1.00924 0.370782,-0.87329 0.907092,-2.1318 1.568894,-3.68195 1.323605,-3.1003 3.149045,-7.36716 5.157309,-12.05198 z"
               style="color:#000000;font-style:normal;font-variant:normal;font-weight:normal;font-stretch:normal;font-size:medium;line-height:normal;font-family:sans-serif;font-variant-ligatures:normal;font-variant-position:normal;font-variant-caps:normal;font-variant-numeric:normal;font-variant-alternates:normal;font-feature-settings:normal;text-indent:0;text-align:start;text-decoration:none;text-decoration-line:none;text-decoration-style:solid;text-decoration-color:#000000;letter-spacing:normal;word-spacing:normal;text-transform:none;writing-mode:lr-tb;direction:ltr;text-orientation:mixed;dominant-baseline:auto;baseline-shift:baseline;text-anchor:start;white-space:normal;shape-padding:0;clip-rule:nonzero;display:inline;overflow:visible;visibility:visible;opacity:1;isolation:auto;mix-blend-mode:normal;color-interpolation:sRGB;color-interpolation-filters:linearRGB;solid-color:#000000;solid-opacity:1;vector-effect:none;fill:#8b0000;fill-opacity:1;fill-rule:nonzero;stroke:none;stroke-width:0.26726952;stroke-linecap:butt;stroke-linejoin:miter;stroke-miterlimit:4;stroke-dasharray:none;stroke-dashoffset:0;stroke-opacity:1;color-rendering:auto;image-rendering:auto;shape-rendering:auto;text-rendering:auto;enable-background:accumulate" />
            <path
               inkscape:connector-curvature="0"
               id="path3864"
               d="m 155.09182,102.9741 c -0.0332,8.1e-4 -0.0535,0.0113 -0.0672,0.0191 -0.0274,0.0157 -0.0361,0.0275 -0.0455,0.0382 -0.0188,0.0215 -0.0316,0.0417 -0.0481,0.0682 -0.0329,0.053 -0.0741,0.1275 -0.12557,0.22686 -0.10294,0.19874 -0.24609,0.49464 -0.42685,0.87902 -0.36152,0.76875 -0.8715,1.89085 -1.49242,3.28404 -1.24183,2.78637 -2.92807,6.65518 -4.75991,10.93473 -3.66324,8.55807 -6.93935,16.19651 -7.27449,16.96227 l -0.69608,1.5906 h 14.79857 c 6.88595,0 10.53168,-0.006 12.44627,-0.0682 0.9573,-0.031 1.47785,-0.0736 1.77509,-0.14366 0.14862,-0.035 0.24929,-0.0733 0.31987,-0.15503 0.0706,-0.0817 0.0686,-0.19768 0.0476,-0.2713 -0.0224,-0.0785 -0.0856,-0.23395 -0.19999,-0.51418 -0.11437,-0.28023 -0.27555,-0.66749 -0.47646,-1.1467 -0.40181,-0.95843 -0.96345,-2.28419 -1.63194,-3.85403 -1.33697,-3.13967 -3.10079,-7.25464 -4.86378,-11.35125 -1.763,-4.09661 -3.52536,-8.17528 -4.85966,-11.24272 -0.66714,-1.53372 -1.22695,-2.81435 -1.62677,-3.71864 -0.19991,-0.45214 -0.35955,-0.81007 -0.47284,-1.05885 -0.0566,-0.12438 -0.10192,-0.22124 -0.13487,-0.2899 -0.0165,-0.0343 -0.0298,-0.0616 -0.0408,-0.0827 -0.005,-0.0105 -0.0103,-0.0197 -0.0155,-0.0284 -0.005,-0.009 -0.004,-0.0127 -0.0269,-0.0362 -0.024,-0.0244 -0.0686,-0.0421 -0.1018,-0.0413 z m -0.009,0.40411 c 0.0263,0.0562 0.0493,0.10489 0.0858,0.185 0.11251,0.24705 0.27211,0.60459 0.47181,1.05627 0.3994,0.90334 0.95923,2.18414 1.62626,3.7176 1.33406,3.06692 3.09624,7.14532 4.85913,11.24169 1.7629,4.09637 3.52651,8.21053 4.86327,11.34969 0.66838,1.56959 1.22998,2.89543 1.63143,3.853 0.20072,0.47878 0.36163,0.86584 0.47542,1.14463 0.11379,0.2788 0.18513,0.46683 0.19069,0.48628 0.0105,0.0367 0.0109,0.0185 0.007,0.0227 -0.004,0.004 -0.0541,0.0402 -0.17932,0.0698 -0.25046,0.059 -0.77026,0.10615 -1.72237,0.13694 -1.90422,0.0616 -5.55171,0.0682 -12.43749,0.0682 h -14.38981 l 0.53226,-1.21595 c 0.34039,-0.77772 3.61173,-8.40617 7.27501,-16.96434 1.83142,-4.27857 3.51787,-8.14659 4.75888,-10.93112 0.62051,-1.39226 1.12978,-2.51375 1.48983,-3.27938 0.18003,-0.38282 0.32292,-0.67706 0.42272,-0.86972 0.0171,-0.0329 0.0248,-0.0444 0.0393,-0.0713 z"
               style="color:#000000;font-style:normal;font-variant:normal;font-weight:normal;font-stretch:normal;font-size:medium;line-height:normal;font-family:sans-serif;font-variant-ligatures:normal;font-variant-position:normal;font-variant-caps:normal;font-variant-numeric:normal;font-variant-alternates:normal;font-feature-settings:normal;text-indent:0;text-align:start;text-decoration:none;text-decoration-line:none;text-decoration-style:solid;text-decoration-color:#000000;letter-spacing:normal;word-spacing:normal;text-transform:none;writing-mode:lr-tb;direction:ltr;text-orientation:mixed;dominant-baseline:auto;baseline-shift:baseline;text-anchor:start;white-space:normal;shape-padding:0;clip-rule:nonzero;display:inline;overflow:visible;visibility:visible;opacity:1;isolation:auto;mix-blend-mode:normal;color-interpolation:sRGB;color-interpolation-filters:linearRGB;solid-color:#000000;solid-opacity:1;vector-effect:none;fill:#8b0000;fill-opacity:1;fill-rule:nonzero;stroke:none;stroke-width:0.26726952;stroke-linecap:butt;stroke-linejoin:miter;stroke-miterlimit:4;stroke-dasharray:none;stroke-dashoffset:0;stroke-opacity:1;color-rendering:auto;image-rendering:auto;shape-rendering:auto;text-rendering:auto;enable-background:accumulate" />
            <path
               inkscape:connector-curvature="0"
               id="path3866"
               d="m 105.07421,197.11306 c -9.481589,0 -18.101063,0.0146 -24.350455,0.0388 -3.124698,0.0121 -5.657059,0.0264 -7.408333,0.0424 -0.875639,0.008 -1.555838,0.0166 -2.017967,0.0253 -0.231063,0.004 -0.407665,0.009 -0.527616,0.0134 -0.05998,0.002 -0.105214,0.004 -0.138494,0.007 -0.01664,0.001 -0.02988,0.003 -0.04392,0.005 -0.007,0.001 -0.01317,0.002 -0.02687,0.006 -0.0069,0.002 -0.01572,0.004 -0.03307,0.0145 -0.01735,0.0105 -0.06511,0.11495 -0.06511,0.11524 0,2.8e-4 0.0051,0.036 0.0067,0.0413 0.0017,0.005 0.0025,0.009 0.0036,0.0114 0.0022,0.006 0.0044,0.0102 0.0067,0.0155 0.0046,0.0106 0.01038,0.0232 0.01809,0.0398 0.01542,0.0332 0.03759,0.0807 0.06718,0.14211 0.05918,0.12285 0.147058,0.30269 0.262001,0.53692 0.229883,0.46845 0.568552,1.15391 1.004588,2.03398 0.872072,1.76015 2.1335,4.29718 3.689697,7.42177 3.112397,6.24919 7.405216,14.84988 12.127425,24.29464 4.72221,9.44477 9.022504,18.03138 12.147063,24.2564 1.562281,3.11251 2.830791,5.63467 3.710881,7.37888 0.44005,0.87211 0.78275,1.54939 1.01699,2.00918 0.11713,0.2299 0.20726,0.40559 0.26872,0.524 0.0307,0.0592 0.0541,0.10389 0.0708,0.13488 0.008,0.0155 0.0151,0.0275 0.0207,0.0372 0.003,0.005 0.005,0.009 0.009,0.0145 0.002,0.003 0.004,0.006 0.009,0.0129 0.006,0.007 0.10476,0.0506 0.1049,0.0506 1.4e-4,0 0.0994,-0.0437 0.1049,-0.0506 0.006,-0.007 0.007,-0.01 0.009,-0.0129 0.004,-0.006 0.006,-0.01 0.009,-0.0145 0.006,-0.01 0.0123,-0.0217 0.0207,-0.0372 0.0167,-0.0311 0.0405,-0.0765 0.0713,-0.13591 0.0617,-0.11886 0.15166,-0.29477 0.26924,-0.52555 0.23515,-0.46158 0.57987,-1.14196 1.02164,-2.01745 0.88353,-1.75098 2.15642,-4.28271 3.72484,-7.4073 3.13683,-6.24919 7.45429,-14.86902 12.19512,-24.35045 l 17.33589,-34.67075 z m 0,0.26716 h 34.26199 l -17.14263,34.28421 c -4.74078,9.48134 -9.05838,18.10094 -12.19512,24.34994 -1.56836,3.1245 -2.84146,5.65612 -3.72484,7.40678 -0.44168,0.87534 -0.78628,1.55545 -1.02112,2.01642 -0.1077,0.21139 -0.18557,0.36386 -0.24598,0.48059 -0.0602,-0.11624 -0.13784,-0.26778 -0.24495,-0.47801 -0.23394,-0.45919 -0.57702,-1.1362 -1.01699,-2.00814 -0.87993,-1.7439 -2.14814,-4.26595 -3.71037,-7.37837 -3.124459,-6.22483 -7.424902,-14.81122 -12.147058,-24.25588 -4.722161,-9.44466 -9.015124,-18.04564 -12.127425,-24.29464 -1.556153,-3.1245 -2.816747,-5.6609 -3.688665,-7.42074 -0.435959,-0.87991 -0.774999,-1.56561 -1.004589,-2.03346 -0.114797,-0.23393 -0.202342,-0.41367 -0.260966,-0.53537 -0.0031,-0.006 -0.0038,-0.008 -0.0067,-0.0145 0.11647,-0.004 0.281829,-0.008 0.503843,-0.0124 0.460428,-0.009 1.140185,-0.0168 2.015382,-0.0248 1.750393,-0.0159 4.282347,-0.0303 7.406783,-0.0424 6.248871,-0.0242 14.868117,-0.0393 24.349425,-0.0393 z"
               style="color:#000000;font-style:normal;font-variant:normal;font-weight:normal;font-stretch:normal;font-size:medium;line-height:normal;font-family:sans-serif;font-variant-ligatures:normal;font-variant-position:normal;font-variant-caps:normal;font-variant-numeric:normal;font-variant-alternates:normal;font-feature-settings:normal;text-indent:0;text-align:start;text-decoration:none;text-decoration-line:none;text-decoration-style:solid;text-decoration-color:#000000;letter-spacing:normal;word-spacing:normal;text-transform:none;writing-mode:lr-tb;direction:ltr;text-orientation:mixed;dominant-baseline:auto;baseline-shift:baseline;text-anchor:start;white-space:normal;shape-padding:0;clip-rule:nonzero;display:inline;overflow:visible;visibility:visible;opacity:1;isolation:auto;mix-blend-mode:normal;color-interpolation:sRGB;color-interpolation-filters:linearRGB;solid-color:#000000;solid-opacity:1;vector-effect:none;fill-opacity:1;fill-rule:nonzero;stroke:none;stroke-width:0.26726952;stroke-linecap:butt;stroke-linejoin:miter;stroke-miterlimit:4;stroke-dasharray:none;stroke-dashoffset:0;stroke-opacity:1;color-rendering:auto;image-rendering:auto;shape-rendering:auto;text-rendering:auto;enable-background:accumulate;fill:#8b0000" />
            <path
               inkscape:connector-curvature="0"
               id="path29"
               style="font-style:normal;font-weight:normal;font-size:14.05387878px;line-height:1.25;font-family:sans-serif;letter-spacing:0px;word-spacing:0px;fill:none;fill-opacity:1;stroke:#8b0000;stroke-width:0.35134697;stroke-opacity:1"
               d="m 77.692338,123.95227 -0.839838,0.76841 v -7.91735 l 1.54142,-0.63477 -1.503391,-0.14692 h -1.404762 l -1.236122,0.14692 1.474602,0.70158 v 7.91735 l -0.773019,-0.76839 -0.701583,1.08237 h 4.144275 z m -2.380861,-11.10423 -0.326163,1.89746 2.085834,-0.70158 1.122319,-2.46541 z"
               sodipodi:nodetypes="cccccccccccccccccc" />
            <path
               inkscape:connector-curvature="0"
               id="path31"
               style="font-style:normal;font-weight:normal;font-size:14.05387878px;line-height:1.25;font-family:sans-serif;letter-spacing:0px;word-spacing:0px;fill:none;fill-opacity:1;stroke:#8b0000;stroke-width:0.35134697;stroke-opacity:1"
               d="m 86.077617,122.60109 c 0,0.68149 -0.298369,1.24049 -0.895107,1.677 -0.592039,0.43651 -1.402569,0.65477 -2.43159,0.65477 -0.582641,0 -1.118296,-0.0646 -1.606964,-0.19375 -0.483968,-0.13363 -1.759033,-1.54792 -2.087944,-1.70382 0,0 -0.967428,-1.09818 -0.567948,-1.40975 0.402991,-0.31431 1.239784,0.90203 1.239784,0.90203 0.418187,0.29843 1.150631,0.90423 1.662792,1.0824 0.512161,0.17371 1.003177,0.26056 1.473049,0.26056 0.582643,0 1.038419,-0.0891 1.36733,-0.26725 0.32891,-0.17817 0.493365,-0.45879 0.493365,-0.84184 0,-0.29398 -0.08928,-0.51669 -0.267827,-0.66813 -0.178552,-0.15145 -0.521559,-0.28062 -1.02902,-0.38752 -0.187949,-0.0401 -0.434633,-0.0869 -0.74005,-0.14031 -0.300718,-0.0535 -0.575593,-0.11137 -0.824626,-0.17371 -0.690713,-0.17371 -1.181729,-0.4276 -1.47305,-0.76167 -0.286622,-0.33852 -0.429933,-0.75276 -0.429933,-1.24272 0,-0.30734 0.06578,-0.59686 0.197347,-0.86857 0.136263,-0.27171 0.340657,-0.51446 0.613183,-0.72826 0.263129,-0.20935 0.596738,-0.37416 1.000828,-0.49443 0.408789,-0.12471 0.864566,-0.18707 1.367329,-0.18707 0.469872,0 1.044669,-0.51225 1.523939,-0.40091 0.483969,0.1069 1.553884,-0.63033 1.873397,-0.47444 -0.03341,0.69154 -1.035672,0.84855 -1.069079,1.5401 -0.03341,0.69154 1.102484,1.0824 1.069079,1.77395 L 85.46316,118.9464 c -0.338308,-0.23607 -0.482176,-0.30064 -0.966145,-0.46099 -0.483968,-0.16481 -0.991948,-0.31403 -1.457123,-0.31403 -0.483968,0 -0.892757,0.0891 -1.226366,0.26725 -0.333609,0.17372 -0.500414,0.43429 -0.500414,0.78171 0,0.30735 0.101023,0.53897 0.303068,0.69486 0.197346,0.15589 0.516859,0.28284 0.958539,0.38083 0.244334,0.0535 0.51686,0.10692 0.817579,0.16036 0.305417,0.0534 0.559147,0.1024 0.761192,0.14699 0.615533,0.13362 1.090104,0.36301 1.423714,0.68817 0.333609,0.32961 0.500414,0.76612 0.500413,1.30954 z"
               sodipodi:nodetypes="ccsccaccscscccccscccsccscccscscccccc" />
            <path
               inkscape:connector-curvature="0"
               id="path33"
               style="font-style:normal;font-weight:normal;font-size:14.05387878px;line-height:1.25;font-family:sans-serif;letter-spacing:0px;word-spacing:0px;fill:none;fill-opacity:0.93103451;stroke:#8b0000;stroke-width:0.35134697;stroke-opacity:1"
               d="m 94.122142,123.46444 0.0092,1.62033 -1.126718,0.0167 v -0.79508 c -0.117468,0.0757 -0.277225,0.18262 -0.47927,0.3207 -0.197346,0.13363 -0.389994,0.24053 -0.577943,0.32071 -0.22084,0.10245 -0.474571,0.18707 -0.761193,0.25388 -0.286622,0.0713 -0.622581,0.10691 -1.007877,0.10691 -0.709507,0 -1.310944,-0.22271 -1.804309,-0.66813 -0.493366,-0.44543 -0.740049,-1.01334 -0.740049,-1.70374 0,-0.56568 0.126865,-1.02224 0.380596,-1.36967 0.25843,-0.35187 0.62493,-0.62803 1.099501,-0.82848 0.47927,-0.20044 1.054864,-0.33629 1.726781,-0.40755 0.671918,-0.0713 1.393172,-0.12473 2.163763,-0.16036 v -0.19375 c 0,-0.28507 -0.05403,-0.52115 -0.162106,-0.70822 -0.103372,-0.18707 -0.253731,-0.33406 -0.451078,-0.44097 -0.187949,-0.10245 -0.413487,-0.17149 -0.676616,-0.20712 -0.263129,-0.0356 -0.538004,-0.0534 -0.824626,-0.0534 -0.347705,0 -0.501489,0.14473 -0.929073,0.23386 -0.427584,0.0846 -1.537438,0.71047 -1.993214,0.87527 l -0.0037,-0.60136 -0.03341,-1.14249 c 0.25843,-0.0668 0.765613,-0.34076 1.25428,-0.42094 0.244334,-0.0401 0.279494,-0.49251 0.460446,-0.70827 0.308166,-0.36744 0.813944,-0.9822 1.051229,-0.9822 4.464193,-0.20355 3.460394,4.58192 3.425369,7.64337 z m -1.11754,-0.20034 v -2.07788 c -0.40409,0.0223 -2.032117,1.53679 -2.032117,1.53679 0,0 -0.375979,-1.32745 -0.695492,-1.24281 -0.380597,0.10244 -0.688363,0.26279 -0.923299,0.48106 -0.234937,0.21379 1.685525,0.55451 1.685525,0.55451 0,0 -1.901667,1.08463 -1.62914,1.30289 0.272525,0.2138 0.688362,0.3207 1.24751,0.3207 0.465173,0 0.273443,-1.55683 0.273443,-1.55683 0,0 1.744659,0.9221 2.07357,0.68157 z"
               sodipodi:nodetypes="cccccccscsccccscccscccccacccccccscsccc" />
            <path
               inkscape:connector-curvature="0"
               id="path35"
               style="font-style:normal;font-weight:normal;font-size:14.05387878px;line-height:1.25;font-family:sans-serif;letter-spacing:0px;word-spacing:0px;fill:none;fill-opacity:1;stroke:#8b0000;stroke-width:0.35134697;stroke-opacity:1"
               d="m 101.83402,120.21082 -0.13732,0.0334 c -0.19734,-0.0445 -0.59044,-0.51001 -0.77839,-0.52791 -0.18325,-0.0223 -0.36833,-0.16704 -0.62206,-0.16704 -0.408792,0 -0.63644,-0.14696 -1.017037,0.0267 -0.380597,0.16926 -0.713689,-0.0446 -1.066094,0.22714 v 5.29828 l -0.729337,-2.07134 -0.595703,2.07134 -0.05011,-5.08456 -0.05011,-5.08456 h 0.662519 0.662519 l -0.06682,1.30285 c 0.526258,-0.40087 1.156127,1.82195 1.555518,1.65714 0.404095,-0.16926 0.681605,-0.18707 1.099795,-0.18707 0.68665,0.38851 2.09904,1.63289 2.00124,2.15154 -0.0822,0.30166 -0.8686,0.35408 -0.8686,0.35408 z"
               sodipodi:nodetypes="cccscccccccccccscac" />
            <path
               inkscape:connector-curvature="0"
               id="path37"
               style="font-style:normal;font-weight:normal;font-size:14.05387878px;line-height:1.25;font-family:sans-serif;letter-spacing:0px;word-spacing:0px;fill:none;fill-opacity:1;stroke:#8b0000;stroke-width:0.35134697;stroke-opacity:1"
               d="m 114.11346,125.30193 h -6.6393 v -9.94846 l 1.26189,8.65285 0.13363,0.1197 -0.0348,0.0334 z"
               sodipodi:nodetypes="ccccccc" />
            <path
               inkscape:connector-curvature="0"
               id="path39"
               style="font-style:normal;font-weight:normal;font-size:14.05387878px;line-height:1.25;font-family:sans-serif;letter-spacing:0px;word-spacing:0px;fill:none;fill-opacity:1;stroke:#8b0000;stroke-width:0.35134697;stroke-opacity:1"
               d="m 122.88144,121.3733 c 0,1.21599 -0.32891,2.17587 -0.98674,2.87964 -0.65782,0.70377 -1.53883,1.05565 -2.64303,1.05565 -1.11359,0 -1.9993,-0.35188 -2.65712,-1.05565 -0.65313,-0.70377 -0.97969,-1.66365 -0.97969,-2.87964 0,-1.216 0.32656,-2.17588 0.97969,-2.87964 0.65782,-0.70823 1.54353,-1.06234 2.65712,-1.06234 1.1042,0 1.98521,0.35411 2.64303,1.06234 0.65783,0.70376 0.98674,1.66364 0.98674,2.87964 z m -1.36733,0 c 0,-0.96657 -0.23311,-1.34961 -0.6325,-1.8173 -0.39939,-0.47214 -0.85362,1.99789 -1.56312,1.99789 -0.7189,0 -1.24464,-2.40322 -1.64403,-1.93108 -0.39469,0.46769 -0.69227,0.78392 -0.69227,1.75049 0,0.93538 0.40015,1.37855 0.79954,1.86406 0.39939,0.48106 0.82255,-1.68384 1.53676,-1.68384 0.70481,0 1.12327,1.96668 1.52266,1.49008 0.40409,-0.48106 0.67296,-0.72601 0.67296,-1.6703 z"
               sodipodi:nodetypes="scscscscsscccscccs" />
            <path
               inkscape:connector-curvature="0"
               id="path41"
               style="font-style:normal;font-weight:normal;font-size:14.05387878px;line-height:1.25;font-family:sans-serif;letter-spacing:0px;word-spacing:0px;fill:none;fill-opacity:1;stroke:#8b0000;stroke-width:0.35134697;stroke-opacity:1"
               d="m 131.32505,124.25294 c 0,1.26499 -0.30307,2.19369 -0.90921,2.7861 -0.60613,0.59241 -1.53883,0.88862 -2.79809,0.88862 -0.41819,0 -0.82697,-0.0289 -1.22636,-0.0868 -0.39469,-0.0534 -0.78469,-0.13135 -1.16998,-0.23385 v -1.28281 h 0.0705 c 0.21614,0.0802 0.55915,0.17817 1.02902,0.29398 0.46987,0.12027 0.93974,0.1804 1.40962,0.1804 0.45107,0 0.82462,-0.0512 1.12064,-0.15367 0.29601,-0.10245 0.52625,-0.24498 0.69071,-0.4276 0.16445,-0.17372 0.28192,-0.38307 0.35241,-0.62805 0.0705,-0.24498 0.31521,-0.60304 0.10572,-0.8218 l -0.30068,-0.31399 c -0.39939,0.30288 -0.48166,0.16254 -0.84816,0.31399 -0.3618,0.14699 -0.82462,0.22048 -1.38847,0.22048 -0.93975,0 -1.68684,-0.3207 -2.24129,-0.9621 -0.54976,-0.64587 -0.82464,-1.55453 -0.82464,-2.72598 0,-0.6414 0.094,-1.19372 0.28193,-1.65696 0.19265,-0.46769 0.45343,-0.8708 0.78234,-1.20932 0.30542,-0.31625 0.67662,-0.56123 1.1136,-0.73494 0.43698,-0.17817 0.87161,-0.26726 1.30389,-0.26726 0.45578,0 0.83638,0.0446 1.1418,0.13364 0.31011,0.0846 0.63667,0.21602 0.97968,0.39419 l 0.0845,-0.3207 h 1.24045 z m -1.32504,-1.20264 0.60136,-1.80058 -0.60136,-2.26833 c -0.35241,-0.15144 -0.68132,-0.25834 -0.98673,-0.3207 -0.30072,-0.0668 -0.60144,-0.10022 -0.90216,-0.10022 -0.7283,0 -0.96745,0.56571 -1.38564,1.02895 -0.41819,0.46323 -0.96137,0.80172 -0.96137,1.68365 0,0.8374 0.12165,0.6035 0.43176,1.03556 0.31012,0.43206 0.0228,0.34741 0.74172,0.34741 0.38529,0 1.33854,0.29845 1.72384,0.16036 0.38999,-0.14253 1.01437,0.46997 1.33858,0.2339 z"
               sodipodi:nodetypes="ccscccccscccsccscscccscccccccccscscscc" />
            <path
               inkscape:connector-curvature="0"
               style="font-style:normal;font-weight:normal;font-size:14.05387878px;line-height:1.25;font-family:sans-serif;letter-spacing:0px;word-spacing:0px;fill:none;fill-opacity:1;stroke:#8b0000;stroke-width:1.32792556;stroke-opacity:1"
               d="m 505.93555,112.45117 v 4.92383 h 5.64843 v -4.92383 z"
               transform="matrix(0.26458333,0,0,0.26458333,0,85.333317)"
               id="path4068" />
            <path
               inkscape:connector-curvature="0"
               style="font-style:normal;font-weight:normal;font-size:14.05387878px;line-height:1.25;font-family:sans-serif;letter-spacing:0px;word-spacing:0px;fill:none;fill-opacity:1;stroke:#8b0000;stroke-width:1.32792556;stroke-opacity:1"
               d="m 506.25586,122.09766 v 28.20703 h 5.00781 v -28.20703 z"
               transform="matrix(0.26458333,0,0,0.26458333,0,85.333317)"
               id="path43" />
          </g>
        </g>
      </g>
    </g>
  </g>
</svg>
